<svg width="26" height="25" viewBox="0 0 26 25" fill="none" xmlns="http://www.w3.org/2000/svg">
<g clip-path="url(#clip0_49_3357)">
<path d="M20.9729 2.74021H17.9464C17.7795 2.17979 17.4357 1.68787 16.9661 1.33737C16.4966 0.986875 15.9261 0.796456 15.3394 0.794342H11.4331C10.8464 0.796456 10.2759 0.986875 9.80631 1.33737C9.33673 1.68787 8.99299 2.17979 8.82607 2.74021H5.79951C5.32542 2.74082 4.87092 2.92873 4.53569 3.26272C4.20046 3.5967 4.01185 4.04951 4.01123 4.52184V22.3631C4.01185 22.8354 4.20046 23.2882 4.53569 23.6222C4.87092 23.9562 5.32542 24.1441 5.79951 24.1447H20.9729C21.447 24.1441 21.9015 23.9562 22.2368 23.6222C22.572 23.2882 22.7606 22.8354 22.7612 22.3631V4.52184C22.7606 4.04951 22.572 3.5967 22.2368 3.26272C21.9015 2.92873 21.447 2.74082 20.9729 2.74021ZM11.4331 2.35103H15.3394C15.6502 2.35103 15.9482 2.47404 16.168 2.69299C16.3878 2.91194 16.5112 3.20891 16.5112 3.51855C16.5112 3.8282 16.3878 4.12516 16.168 4.34411C15.9482 4.56306 15.6502 4.68607 15.3394 4.68607H11.4331C11.1223 4.68607 10.8242 4.56306 10.6045 4.34411C10.3847 4.12516 10.2612 3.8282 10.2612 3.51855C10.2612 3.20891 10.3847 2.91194 10.6045 2.69299C10.8242 2.47404 11.1223 2.35103 11.4331 2.35103ZM21.1987 22.3631C21.1985 22.4227 21.1747 22.4798 21.1324 22.5219C21.0901 22.5641 21.0328 22.5878 20.9729 22.588H5.79951C5.73969 22.5878 5.68239 22.5641 5.64009 22.5219C5.59779 22.4798 5.57394 22.4227 5.57373 22.3631V4.52184C5.57394 4.46224 5.59779 4.40515 5.64009 4.36301C5.68239 4.32087 5.73969 4.2971 5.79951 4.2969H8.82607C8.99299 4.85732 9.33673 5.34924 9.80631 5.69973C10.2759 6.05023 10.8464 6.24065 11.4331 6.24276H15.3394C15.9261 6.24065 16.4966 6.05023 16.9661 5.69973C17.4357 5.34924 17.7795 4.85732 17.9464 4.2969H20.9729C21.0328 4.2971 21.0901 4.32087 21.1324 4.36301C21.1747 4.40515 21.1985 4.46224 21.1987 4.52184V22.3631Z" fill="#333845"/>
<path d="M18.0737 17.1396H8.69873C8.49153 17.1396 8.29282 17.2216 8.1463 17.3676C7.99979 17.5135 7.91748 17.7115 7.91748 17.9179C7.91748 18.1244 7.99979 18.3223 8.1463 18.4683C8.29282 18.6143 8.49153 18.6963 8.69873 18.6963H18.0737C18.2809 18.6963 18.4796 18.6143 18.6262 18.4683C18.7727 18.3223 18.855 18.1244 18.855 17.9179C18.855 17.7115 18.7727 17.5135 18.6262 17.3676C18.4796 17.2216 18.2809 17.1396 18.0737 17.1396Z" fill="#333845"/>
<path d="M18.0737 13.2479H8.69873C8.49153 13.2479 8.29282 13.3299 8.1463 13.4758C7.99979 13.6218 7.91748 13.8198 7.91748 14.0262C7.91748 14.2326 7.99979 14.4306 8.1463 14.5766C8.29282 14.7226 8.49153 14.8046 8.69873 14.8046H18.0737C18.2809 14.8046 18.4796 14.7226 18.6262 14.5766C18.7727 14.4306 18.855 14.2326 18.855 14.0262C18.855 13.8198 18.7727 13.6218 18.6262 13.4758C18.4796 13.3299 18.2809 13.2479 18.0737 13.2479Z" fill="#333845"/>
<path d="M18.0737 9.35614H8.69873C8.49153 9.35614 8.29282 9.43814 8.1463 9.58411C7.99979 9.73008 7.91748 9.92806 7.91748 10.1345C7.91748 10.3409 7.99979 10.5389 8.1463 10.6849C8.29282 10.8308 8.49153 10.9128 8.69873 10.9128H18.0737C18.2809 10.9128 18.4796 10.8308 18.6262 10.6849C18.7727 10.5389 18.855 10.3409 18.855 10.1345C18.855 9.92806 18.7727 9.73008 18.6262 9.58411C18.4796 9.43814 18.2809 9.35614 18.0737 9.35614Z" fill="#333845"/>
</g>
<defs>
<clipPath id="clip0_49_3357">
<rect width="25" height="24.9071" fill="white" transform="translate(0.88623 0.0159912)"/>
</clipPath>
</defs>
</svg>
