<svg width="25" height="25" viewBox="0 0 25 25" fill="none" xmlns="http://www.w3.org/2000/svg">
<path d="M12.8862 23.5576C12.6943 23.5576 12.5025 23.4846 12.356 23.3387L6.32928 17.3344C2.71368 13.7322 2.71368 7.87162 6.32928 4.26947C9.94451 0.666933 15.828 0.666933 19.4433 4.26947C23.0589 7.87162 23.0589 13.7322 19.4433 17.3344L13.4166 23.3387C13.27 23.4846 13.0782 23.5576 12.8862 23.5576ZM12.8862 3.06145C10.8959 3.06145 8.90516 3.81636 7.38978 5.3261C4.35941 8.34558 4.35941 13.2583 7.38978 16.2778L12.8862 21.7538L18.3827 16.2778C21.4131 13.2583 21.4131 8.34558 18.3827 5.3261C16.8673 3.81636 14.8766 3.06145 12.8862 3.06145Z" fill="#333845"/>
<path d="M12.8862 14.4849C10.8186 14.4849 9.13623 12.8087 9.13623 10.7488C9.13623 8.6889 10.8186 7.01276 12.8862 7.01276C14.9538 7.01276 16.6362 8.6889 16.6362 10.7488C16.6362 12.8087 14.9538 14.4849 12.8862 14.4849ZM12.8862 8.50718C11.6455 8.50718 10.6362 9.5127 10.6362 10.7488C10.6362 11.9849 11.6455 12.9905 12.8862 12.9905C14.127 12.9905 15.1362 11.9849 15.1362 10.7488C15.1362 9.5127 14.127 8.50718 12.8862 8.50718Z" fill="#333845"/>
</svg>
