<svg width="26" height="26" viewBox="0 0 26 26" fill="none" xmlns="http://www.w3.org/2000/svg">
<g clip-path="url(#clip0_49_3349)">
<path d="M1.66736 1.01373V24.3641H25.1049V1.01373H1.66736ZM14.2838 2.57042L12.3306 4.12712H3.22986V2.57042H14.2838ZM23.5424 22.8074H3.22986V5.68381H12.8791L16.7853 2.57042H23.5424V22.8074Z" fill="#333845"/>
<path d="M17.2924 10.3539V19.694H15.7299V7.24048H11.0424V19.694H9.47986V14.2456H4.79236V19.694H4.01111V21.2507H22.7611V19.694H21.9799V10.3539H17.2924ZM6.35486 19.694V15.8023H7.91736V19.694H6.35486ZM12.6049 19.694V8.79717H14.1674V19.694H12.6049ZM18.8549 19.694V11.9106H20.4174V19.694H18.8549Z" fill="#333845"/>
</g>
<defs>
<clipPath id="clip0_49_3349">
<rect width="25" height="24.9071" fill="white" transform="translate(0.886108 0.235413)"/>
</clipPath>
</defs>
</svg>
