<svg width="24" height="24" viewBox="0 0 24 24" fill="none" xmlns="http://www.w3.org/2000/svg">
<g clip-path="url(#clip0_49_3341)">
<path d="M20.9745 22.43H3.79776C3.2164 22.4292 2.65907 22.1988 2.24799 21.7893C1.8369 21.3797 1.60562 20.8244 1.60486 20.2452V9.58069C1.60515 9.23293 1.68862 8.89024 1.84837 8.58103C2.00811 8.27183 2.23952 8.005 2.52342 7.80267L11.1118 1.69094C11.4836 1.42639 11.9292 1.28418 12.3861 1.28418C12.8431 1.28418 13.2886 1.42639 13.6605 1.69094L22.2488 7.80267C22.5327 8.005 22.7641 8.27183 22.9239 8.58103C23.0836 8.89024 23.1671 9.23293 23.1674 9.58069V20.2452C23.1666 20.8244 22.9353 21.3797 22.5242 21.7893C22.1131 22.1988 21.5558 22.4292 20.9745 22.43ZM12.3861 2.71637C12.2287 2.71633 12.0752 2.76514 11.947 2.856L3.35861 8.96773C3.26085 9.03739 3.18116 9.12927 3.12616 9.23575C3.07116 9.34222 3.04243 9.46023 3.04236 9.57997V20.2452C3.04255 20.4448 3.1222 20.6361 3.26382 20.7772C3.40545 20.9183 3.59748 20.9976 3.79776 20.9978H20.9759C21.1759 20.9973 21.3676 20.9178 21.5089 20.7767C21.6502 20.6356 21.7297 20.4445 21.7299 20.2452V9.58069C21.7298 9.46094 21.7011 9.34294 21.6461 9.23646C21.5911 9.12999 21.5114 9.03811 21.4136 8.96844L12.8253 2.85672C12.6972 2.76534 12.5436 2.71625 12.3861 2.71637Z" fill="#333845"/>
<path d="M15.9799 18.8496H8.79236C8.60173 18.8496 8.41892 18.7742 8.28413 18.6399C8.14933 18.5056 8.07361 18.3235 8.07361 18.1335V15.9853C8.07361 15.7954 8.14933 15.6133 8.28413 15.479C8.41892 15.3447 8.60173 15.2692 8.79236 15.2692C8.98298 15.2692 9.1658 15.3447 9.30059 15.479C9.43538 15.6133 9.51111 15.7954 9.51111 15.9853V17.4175H15.2611V15.9853C15.2611 15.7954 15.3368 15.6133 15.4716 15.479C15.6064 15.3447 15.7892 15.2692 15.9799 15.2692C16.1705 15.2692 16.3533 15.3447 16.4881 15.479C16.6229 15.6133 16.6986 15.7954 16.6986 15.9853V18.1335C16.6986 18.3235 16.6229 18.5056 16.4881 18.6399C16.3533 18.7742 16.1705 18.8496 15.9799 18.8496Z" fill="#333845"/>
</g>
<defs>
<clipPath id="clip0_49_3341">
<rect width="23" height="22.9145" fill="white" transform="translate(0.886108 0.231567)"/>
</clipPath>
</defs>
</svg>
