<svg width="27" height="27" viewBox="0 0 27 27" fill="none" xmlns="http://www.w3.org/2000/svg">
<path d="M13.3861 0.829102C6.38986 0.829102 0.698608 6.4992 0.698608 13.4694C0.698608 20.4397 6.38986 26.1098 13.3861 26.1098C20.3824 26.1098 26.0736 20.4397 26.0736 13.4694C26.0736 6.4992 20.3824 0.829102 13.3861 0.829102ZM13.3861 24.304C7.38673 24.304 2.51111 19.4465 2.51111 13.4694C2.51111 7.49236 7.38673 2.63486 13.3861 2.63486C19.3855 2.63486 24.2611 7.49236 24.2611 13.4694C24.2611 19.4465 19.3855 24.304 13.3861 24.304Z" fill="#333845"/>
<path d="M19.9292 11.14L15.9689 10.5712L14.2017 6.99578C13.8936 6.38182 12.8786 6.38182 12.5705 6.99578L10.8033 10.5712L6.84296 11.14C6.50756 11.1942 6.21765 11.4289 6.11796 11.754C6.00921 12.079 6.09984 12.4402 6.34453 12.6839L9.20828 15.4648L8.52859 19.3923C8.47421 19.7264 8.61015 20.0695 8.89109 20.2772C9.17203 20.4758 9.54359 20.5029 9.84265 20.3404L13.3861 18.4895L16.9295 20.3404C17.0564 20.4126 17.2014 20.4487 17.3464 20.4487C17.5367 20.4487 17.727 20.3855 17.8811 20.2772C18.162 20.0695 18.298 19.7264 18.2436 19.3923L17.5639 15.4648L20.4276 12.6839C20.6723 12.4402 20.763 12.079 20.6542 11.754C20.5545 11.4289 20.2645 11.1942 19.9292 11.14ZM15.9598 14.4987C15.7422 14.7064 15.6517 15.0043 15.697 15.3023L16.1411 17.8936L13.803 16.6656C13.6761 16.6024 13.5311 16.5663 13.3861 16.5663C13.2411 16.5663 13.0961 16.6024 12.9692 16.6656L10.6311 17.8936L11.0752 15.3023C11.1205 15.0043 11.0298 14.7064 10.8123 14.4987L8.92734 12.6659L11.5373 12.2867C11.8273 12.2415 12.0902 12.0609 12.217 11.7901L13.3861 9.43356L14.5552 11.7901C14.682 12.0609 14.9448 12.2415 15.2348 12.2867L17.8448 12.6659L15.9598 14.4987Z" fill="#333845"/>
</svg>
