<svg width="29" height="29" viewBox="0 0 29 29" fill="none" xmlns="http://www.w3.org/2000/svg">
<path d="M6.51111 13.5978H6.58986C7.28111 16.0387 9.10977 18.0088 11.4549 18.9154C11.4547 18.9154 11.455 18.9155 11.4549 18.9154C11.5087 19.8158 11.5112 20.7232 11.4458 21.6176C11.3364 23.1006 11.0783 23.7999 10.7528 24.6853C10.7244 24.7619 10.6943 24.8515 10.6654 24.9305H9.21556C8.73195 24.9305 8.34056 25.3209 8.34056 25.8023C8.34056 26.2836 8.73195 26.674 9.21556 26.674H11.2834H17.4888H19.5567C20.0403 26.674 20.4317 26.2836 20.4317 25.8023C20.4317 25.3209 20.0403 24.9305 19.5567 24.9305H18.1068C18.0779 24.8516 18.0478 24.7619 18.0195 24.6853C17.6939 23.7999 17.4358 23.1005 17.3265 21.618C17.261 20.7231 17.2631 19.8159 17.3169 18.9155C17.3167 18.9155 17.3171 18.9155 17.3169 18.9155C19.662 18.0089 21.4911 16.0387 22.1824 13.5978H22.2611C24.6761 13.5978 26.6361 11.6451 26.6361 9.23905V5.51669C26.6361 5.02851 26.2424 4.64495 25.7611 4.64495H22.4974V3.13682C22.4974 2.65736 22.1124 2.26508 21.6224 2.26508H7.14986C6.65986 2.26508 6.27486 2.65736 6.27486 3.13682V4.64495H3.01111C2.52986 4.64495 2.13611 5.02851 2.13611 5.51669V9.23905C2.13611 11.6451 4.09611 13.5978 6.51111 13.5978ZM15.5815 21.7453C15.6927 23.2521 15.9541 24.115 16.2471 24.9305H12.525C12.8181 24.115 13.0796 23.2521 13.1906 21.7449C13.2479 20.96 13.2484 20.1669 13.2213 19.3756C13.2246 19.376 13.2277 19.377 13.231 19.3775C13.6073 19.4385 13.9923 19.4646 14.386 19.4646C14.7798 19.4646 15.1648 19.4385 15.541 19.3775C15.5443 19.377 15.5474 19.376 15.5507 19.3756C15.5237 20.1669 15.5242 20.9602 15.5815 21.7453ZM24.8861 6.38844V9.23905C24.8861 10.599 23.8361 11.7235 22.4974 11.8456V11.3748V6.38844H24.8861ZM8.02486 4.00857H20.7474V5.51669V11.3748C20.7474 14.8705 17.8949 17.7212 14.3861 17.7212C10.8774 17.7212 8.02486 14.8705 8.02486 11.3748V5.51669V4.00857ZM3.88611 6.38844H6.27486V11.3748V11.8456C4.93611 11.7235 3.88611 10.599 3.88611 9.23905V6.38844Z" fill="#333845"/>
<path d="M14.3861 13.5978C16.0749 13.5978 17.4486 12.2291 17.4486 10.5467C17.4486 8.86419 16.0749 7.49554 14.3861 7.49554C12.6974 7.49554 11.3236 8.86419 11.3236 10.5467C11.3236 12.2291 12.6974 13.5978 14.3861 13.5978ZM14.3861 9.23904C15.1124 9.23904 15.6986 9.82311 15.6986 10.5467C15.6986 11.2702 15.1124 11.8543 14.3861 11.8543C13.6599 11.8543 13.0736 11.2702 13.0736 10.5467C13.0736 9.82311 13.6599 9.23904 14.3861 9.23904Z" fill="#333845"/>
</svg>
