<svg width="94" height="10" viewBox="0 0 94 10" fill="none" xmlns="http://www.w3.org/2000/svg">
<path d="M92.3552 9.19901C92.3132 9.19901 92.2837 9.17377 92.2669 9.12329L89.6799 0.655568C89.663 0.630329 89.663 0.60509 89.6799 0.579851C89.7051 0.554612 89.7388 0.541992 89.7808 0.541992H91.2699C91.3204 0.541992 91.3541 0.567231 91.3709 0.61771L93.9958 9.07281C94.0126 9.15694 93.9789 9.19901 93.8948 9.19901H92.3552ZM88.8848 7.68466C88.8175 7.92023 88.7418 8.16 88.6577 8.40398C88.582 8.64796 88.5105 8.88773 88.4432 9.12329C88.4263 9.17377 88.3927 9.19901 88.3422 9.19901H86.8152C86.7732 9.19901 86.7395 9.18639 86.7143 9.16115C86.6975 9.13591 86.6975 9.10647 86.7143 9.07281L89.0489 1.50108C89.0657 1.4506 89.0994 1.42536 89.1499 1.42536C89.2003 1.42536 89.234 1.4506 89.2508 1.50108L90.0206 3.94927L89.3518 6.0315H90.5632C90.6137 6.0315 90.6474 6.05674 90.6642 6.10722L91.1059 7.55847C91.1227 7.59212 91.1185 7.62157 91.0933 7.6468C91.0764 7.67204 91.047 7.68466 91.0049 7.68466H88.8848Z" fill="white"/>
<path d="M84.1385 9.19909C84.0796 9.19909 84.0502 9.16543 84.0502 9.09813V5.12297L85.5267 3.02812C85.5603 2.98606 85.5982 2.97344 85.6402 2.99026C85.6907 3.00709 85.716 3.04074 85.716 3.09122V9.09813C85.716 9.16543 85.6823 9.19909 85.615 9.19909H84.1385ZM79.1538 6.85185C79.1201 6.89391 79.0823 6.90653 79.0402 6.88971C78.9981 6.87288 78.9771 6.83923 78.9771 6.78875V0.643024C78.9771 0.584133 79.0108 0.554688 79.0781 0.554688H80.5293C80.5966 0.554688 80.6303 0.584133 80.6303 0.643024V4.74438L79.1538 6.85185ZM79.0781 9.19909C79.0108 9.19909 78.9771 9.16543 78.9771 9.09813V8.21476L84.2899 0.592546C84.2984 0.57572 84.311 0.567307 84.3278 0.567307C84.3446 0.558894 84.3615 0.554688 84.3783 0.554688H85.615C85.6823 0.554688 85.716 0.584133 85.716 0.643024V1.66521L80.4536 9.16123C80.4368 9.18647 80.4073 9.19909 80.3653 9.19909H79.0781Z" fill="white"/>
<path d="M70.4087 7.6468C70.4087 7.5795 70.4424 7.54585 70.5097 7.54585H71.1533L73.0084 1.50108C73.0252 1.4506 73.0588 1.42536 73.1093 1.42536C73.1598 1.42536 73.1934 1.4506 73.2103 1.50108L73.9927 3.94927L72.8948 7.54585H78.0309C78.0982 7.54585 78.1319 7.5795 78.1319 7.6468V9.08543C78.1319 9.15274 78.0982 9.18639 78.0309 9.18639H70.5097C70.4424 9.18639 70.4087 9.15274 70.4087 9.08543V7.6468ZM75.6585 6.97797C75.608 6.97797 75.5743 6.95273 75.5575 6.90225L73.6393 0.655568C73.6225 0.630329 73.6225 0.60509 73.6393 0.579851C73.6646 0.554612 73.6982 0.541992 73.7403 0.541992H75.242C75.2925 0.541992 75.3261 0.567231 75.343 0.61771L77.2864 6.85177C77.3032 6.88543 77.299 6.91487 77.2738 6.94011C77.2569 6.96535 77.2275 6.97797 77.1854 6.97797H75.6585Z" fill="white"/>
<path d="M64.0812 9.18647C64.0139 9.18647 63.9802 9.15281 63.9802 9.08551V0.643024C63.9802 0.584133 64.0139 0.554688 64.0812 0.554688H65.5829C65.6502 0.554688 65.6839 0.584133 65.6839 0.643024V9.08551C65.6839 9.15281 65.6502 9.18647 65.5829 9.18647H64.0812ZM66.4284 9.18647C66.3611 9.18647 66.3275 9.15281 66.3275 9.08551V7.63426C66.3275 7.56696 66.3611 7.5333 66.4284 7.5333H69.7095C69.7768 7.5333 69.8105 7.56696 69.8105 7.63426V9.08551C69.8105 9.15281 69.7768 9.18647 69.7095 9.18647H66.4284ZM66.4284 2.20785C66.3611 2.20785 66.3275 2.1742 66.3275 2.10689V0.643024C66.3275 0.584133 66.3611 0.554688 66.4284 0.554688H69.7095C69.7768 0.554688 69.8105 0.584133 69.8105 0.643024V2.10689C69.8105 2.1742 69.7768 2.20785 69.7095 2.20785H66.4284ZM68.8892 4.06292C68.9565 4.06292 68.9902 4.09658 68.9902 4.16388V5.61513C68.9902 5.68244 68.9565 5.71609 68.8892 5.71609H66.4284C66.3611 5.71609 66.3275 5.68244 66.3275 5.61513V4.16388C66.3275 4.09658 66.3611 4.06292 66.4284 4.06292H68.8892Z" fill="white"/>
<path d="M60.7304 9.18647C60.6715 9.18647 60.6421 9.15281 60.6421 9.08551V3.44457L60.2887 3.93673C60.2719 3.96197 60.2467 3.97459 60.213 3.97459C60.1878 3.96617 60.1668 3.95356 60.1499 3.93673L59.2539 2.76311C59.2287 2.72105 59.2287 2.67898 59.2539 2.63691L60.7809 0.592546C60.8061 0.567307 60.8314 0.554688 60.8566 0.554688H62.1817C62.249 0.554688 62.2826 0.584133 62.2826 0.643024V9.08551C62.2826 9.15281 62.249 9.18647 62.1817 9.18647H60.7304ZM55.4302 9.18647C55.3629 9.18647 55.3293 9.15281 55.3293 9.08551V2.68739C55.3293 2.63691 55.3503 2.60326 55.3924 2.58644C55.4344 2.56961 55.4723 2.58223 55.5059 2.62429L56.9824 4.56771V9.08551C56.9824 9.15281 56.9488 9.18647 56.8815 9.18647H55.4302ZM58.888 5.81704C58.8711 5.8507 58.8459 5.86752 58.8123 5.86752C58.7786 5.86752 58.7534 5.8507 58.7365 5.81704L55.3293 1.28662V0.643024C55.3293 0.584133 55.3629 0.554688 55.4302 0.554688H56.73C56.7553 0.554688 56.7805 0.567307 56.8057 0.592546L59.7587 4.50461C59.784 4.54667 59.784 4.58874 59.7587 4.63081L58.888 5.81704Z" fill="white"/>
<path d="M48.8074 4.73155C48.8074 4.68949 48.8242 4.66846 48.8578 4.66846H53.1485C53.1906 4.66846 53.2116 4.68949 53.2116 4.73155V6.09447C53.2116 6.12812 53.1906 6.14495 53.1485 6.14495H48.8578C48.8242 6.14495 48.8074 6.12812 48.8074 6.09447V4.73155Z" fill="white"/>
<path d="M43.0456 9.23668C42.6501 9.23668 42.28 9.15676 41.935 8.99691C41.5901 8.82865 41.2914 8.60991 41.0391 8.34069C40.7867 8.07148 40.5847 7.76861 40.4333 7.43209C40.2903 7.09557 40.2188 6.75484 40.2188 6.4099V3.39383C40.2188 3.05731 40.2903 2.72499 40.4333 2.39688C40.5847 2.06036 40.7867 1.7617 41.0391 1.50089C41.2999 1.23168 41.6027 1.01294 41.9477 0.844677C42.2926 0.676416 42.6586 0.592285 43.0456 0.592285H43.1087C43.176 0.592285 43.2096 0.621731 43.2096 0.680623V2.06877C43.2096 2.13608 43.176 2.16973 43.1087 2.16973H43.0456C42.9194 2.16973 42.7848 2.20759 42.6417 2.28331C42.4987 2.35061 42.3641 2.44315 42.2379 2.56094C42.1201 2.67031 42.0192 2.7965 41.935 2.93952C41.8593 3.08255 41.8215 3.22977 41.8215 3.38121V6.43514C41.8215 6.61182 41.8593 6.77587 41.935 6.9273C42.0192 7.07033 42.1201 7.19652 42.2379 7.30589C42.3641 7.40685 42.4987 7.48677 42.6417 7.54566C42.7848 7.60455 42.9194 7.634 43.0456 7.634H43.1087C43.176 7.634 43.2096 7.66765 43.2096 7.73496V9.13573C43.2096 9.20303 43.176 9.23668 43.1087 9.23668H43.0456ZM46.8062 6.4099C46.8062 6.75484 46.7305 7.09557 46.579 7.43209C46.436 7.76861 46.2383 8.07148 45.9859 8.34069C45.7335 8.60991 45.4349 8.82865 45.0899 8.99691C44.745 9.15676 44.3748 9.23668 43.9794 9.23668H43.9289C43.8616 9.23668 43.828 9.20303 43.828 9.13573V7.73496C43.828 7.66765 43.8616 7.634 43.9289 7.634H43.9794C44.1056 7.634 44.2402 7.60876 44.3832 7.55828C44.5263 7.49939 44.6567 7.41947 44.7744 7.31851C44.8922 7.20914 44.989 7.08295 45.0647 6.93992C45.1488 6.78849 45.1909 6.62023 45.1909 6.43514V6.30895C45.1909 6.24164 45.2245 6.20799 45.2918 6.20799H46.7052C46.7725 6.20799 46.8062 6.24164 46.8062 6.30895V6.4099ZM45.2918 3.58312C45.2245 3.58312 45.1909 3.54947 45.1909 3.48216V3.38121C45.1909 3.21295 45.1488 3.05731 45.0647 2.91428C44.989 2.76285 44.8922 2.63245 44.7744 2.52308C44.6567 2.41371 44.5263 2.32958 44.3832 2.27069C44.2402 2.20338 44.1056 2.16973 43.9794 2.16973H43.9289C43.8616 2.16973 43.828 2.13608 43.828 2.06877V0.680623C43.828 0.621731 43.8616 0.592285 43.9289 0.592285H43.9794C44.3748 0.592285 44.745 0.676416 45.0899 0.844677C45.4349 1.01294 45.7335 1.23168 45.9859 1.50089C46.2383 1.7617 46.436 2.06036 46.579 2.39688C46.7305 2.72499 46.8062 3.05731 46.8062 3.39383V3.48216C46.8062 3.54947 46.7725 3.58312 46.7052 3.58312H45.2918Z" fill="white"/>
<path d="M36.9542 9.18647C36.8869 9.18647 36.8532 9.15281 36.8532 9.08551V5.72871H35.831C35.7637 5.72871 35.7301 5.69506 35.7301 5.62775V4.16388C35.7301 4.09658 35.7637 4.06292 35.831 4.06292H36.8532V0.643024C36.8532 0.584133 36.8869 0.554688 36.9542 0.554688H38.4685C38.5358 0.554688 38.5695 0.584133 38.5695 0.643024V9.08551C38.5695 9.15281 38.5358 9.18647 38.4685 9.18647H36.9542ZM35.0991 5.62775C35.0991 5.69506 35.0655 5.72871 34.9982 5.72871H33.875V9.08551C33.875 9.15281 33.8414 9.18647 33.7741 9.18647H32.3354C32.2681 9.18647 32.2345 9.15281 32.2345 9.08551V0.643024C32.2345 0.584133 32.2681 0.554688 32.3354 0.554688H33.7741C33.8414 0.554688 33.875 0.584133 33.875 0.643024V4.06292H34.9982C35.0655 4.06292 35.0991 4.09658 35.0991 4.16388V5.62775Z" fill="white"/>
<path d="M29.3807 9.19901C29.3386 9.19901 29.3092 9.17377 29.2923 9.12329L26.7053 0.655568C26.6885 0.630329 26.6885 0.60509 26.7053 0.579851C26.7306 0.554612 26.7642 0.541992 26.8063 0.541992H28.2954C28.3459 0.541992 28.3795 0.567231 28.3963 0.61771L31.0212 9.07281C31.038 9.15694 31.0044 9.19901 30.9203 9.19901H29.3807ZM25.9103 7.68466C25.843 7.92023 25.7673 8.16 25.6831 8.40398C25.6074 8.64796 25.5359 8.88773 25.4686 9.12329C25.4518 9.17377 25.4181 9.19901 25.3677 9.19901H23.8407C23.7986 9.19901 23.765 9.18639 23.7397 9.16115C23.7229 9.13591 23.7229 9.10647 23.7397 9.07281L26.0744 1.50108C26.0912 1.4506 26.1248 1.42536 26.1753 1.42536C26.2258 1.42536 26.2594 1.4506 26.2763 1.50108L27.0461 3.94927L26.3772 6.0315H27.5887C27.6392 6.0315 27.6728 6.05674 27.6897 6.10722L28.1313 7.55847C28.1482 7.59212 28.144 7.62157 28.1187 7.6468C28.1019 7.67204 28.0724 7.68466 28.0304 7.68466H25.9103Z" fill="white"/>
<path d="M22.6662 3.00281C22.6662 3.35615 22.582 3.67585 22.4138 3.96189C22.2455 4.23952 22.0646 4.45406 21.8711 4.60549C22.2077 4.82423 22.4516 5.10186 22.6031 5.43838C22.7545 5.7749 22.8302 6.13246 22.8302 6.51104C22.8302 6.92328 22.7671 7.29346 22.6409 7.62156C22.5147 7.94967 22.3381 8.23151 22.1109 8.46708C21.8838 8.69423 21.6061 8.8709 21.278 8.9971C20.9583 9.12329 20.5966 9.18639 20.1927 9.18639H18.9686C18.9013 9.18639 18.8677 9.15274 18.8677 9.08543V7.72252C18.8677 7.65522 18.9013 7.62156 18.9686 7.62156H20.2937C20.5629 7.62156 20.7859 7.5164 20.9625 7.30608C21.1476 7.09575 21.2402 6.85598 21.2402 6.58676V6.52366C21.2402 6.39747 21.2149 6.27127 21.1644 6.14508C21.1224 6.01888 21.0593 5.90531 20.9751 5.80435C20.891 5.70339 20.7901 5.62347 20.6723 5.56458C20.5545 5.50569 20.4283 5.47624 20.2937 5.47624H18.9686C18.9013 5.47624 18.8677 5.44259 18.8677 5.37528V3.97451C18.8677 3.91562 18.9013 3.88618 18.9686 3.88618H20.1675C20.462 3.88618 20.6849 3.80625 20.8363 3.6464C20.9962 3.48656 21.0761 3.28885 21.0761 3.05328V2.97757C21.0761 2.75883 21.0046 2.56954 20.8616 2.40969C20.7186 2.24984 20.4872 2.16992 20.1675 2.16992H18.9686C18.9013 2.16992 18.8677 2.13626 18.8677 2.06896V0.630329C18.8677 0.571438 18.9013 0.541992 18.9686 0.541992H20.0539C20.8616 0.541992 21.4968 0.752318 21.9595 1.17297C22.4306 1.59362 22.6662 2.20357 22.6662 3.00281ZM18.2367 9.08543C18.2367 9.15274 18.2031 9.18639 18.1357 9.18639H16.6593C16.6004 9.18639 16.5709 9.15274 16.5709 9.08543V0.630329C16.5709 0.571438 16.6004 0.541992 16.6593 0.541992H18.1357C18.2031 0.541992 18.2367 0.571438 18.2367 0.630329V9.08543Z" fill="white"/>
<path d="M7.93942 7.6468C7.93942 7.5795 7.97308 7.54585 8.04038 7.54585H8.68398L10.5391 1.50108C10.5559 1.4506 10.5895 1.42536 10.64 1.42536C10.6905 1.42536 10.7241 1.4506 10.741 1.50108L11.5234 3.94927L10.4255 7.54585H15.5616C15.6289 7.54585 15.6626 7.5795 15.6626 7.6468V9.08543C15.6626 9.15274 15.6289 9.18639 15.5616 9.18639H8.04038C7.97308 9.18639 7.93942 9.15274 7.93942 9.08543V7.6468ZM13.1892 6.97797C13.1387 6.97797 13.105 6.95273 13.0882 6.90225L11.17 0.655568C11.1532 0.630329 11.1532 0.60509 11.17 0.579851C11.1953 0.554612 11.2289 0.541992 11.271 0.541992H12.7727C12.8232 0.541992 12.8568 0.567231 12.8737 0.61771L14.8171 6.85177C14.8339 6.88543 14.8297 6.91487 14.8045 6.94011C14.7876 6.96535 14.7582 6.97797 14.7161 6.97797H13.1892Z" fill="white"/>
<path d="M5.81756 9.19901C5.7755 9.19901 5.74605 9.17377 5.72923 9.12329L3.14222 0.655568C3.12539 0.630329 3.12539 0.60509 3.14222 0.579851C3.16746 0.554612 3.20111 0.541992 3.24317 0.541992H4.73228C4.78276 0.541992 4.81641 0.567231 4.83324 0.61771L7.45811 9.07281C7.47493 9.15694 7.44128 9.19901 7.35715 9.19901H5.81756ZM2.34719 7.68466C2.27988 7.92023 2.20416 8.16 2.12003 8.40398C2.04432 8.64796 1.97281 8.88773 1.9055 9.12329C1.88867 9.17377 1.85502 9.19901 1.80454 9.19901H0.277578C0.235512 9.19901 0.20186 9.18639 0.176621 9.16115C0.159795 9.13591 0.159795 9.10647 0.176621 9.07281L2.51124 1.50108C2.52807 1.4506 2.56172 1.42536 2.6122 1.42536C2.66267 1.42536 2.69633 1.4506 2.71315 1.50108L3.48295 3.94927L2.81411 6.0315H4.02559C4.07607 6.0315 4.10972 6.05674 4.12654 6.10722L4.56823 7.55847C4.58505 7.59212 4.58085 7.62157 4.55561 7.6468C4.53878 7.67204 4.50934 7.68466 4.46727 7.68466H2.34719Z" fill="white"/>
</svg>
