<svg width="17" height="17" viewBox="0 0 17 17" fill="none" xmlns="http://www.w3.org/2000/svg">
<g clip-path="url(#clip0_51_2547)">
<path d="M8.21842 0.361328H8.21435C3.73137 0.361328 0.0858307 4.00788 0.0858307 8.49188C0.0858307 10.2704 0.659035 11.9189 1.63368 13.2574L0.620414 16.2779L3.7456 15.2789C5.03124 16.1305 6.56486 16.6224 8.21842 16.6224C12.7014 16.6224 16.3469 12.9749 16.3469 8.49188C16.3469 4.0089 12.7014 0.361328 8.21842 0.361328Z" fill="#EEEEEE"/>
<path d="M12.9494 11.8427C12.7532 12.3966 11.9747 12.856 11.3538 12.9901C10.9289 13.0806 10.374 13.1528 8.50604 12.3783C6.11667 11.3884 4.57797 8.96044 4.45804 8.80291C4.3432 8.64538 3.49254 7.51727 3.49254 6.35054C3.49254 5.1838 4.08505 4.61568 4.32389 4.37176C4.52004 4.17155 4.84424 4.08008 5.15524 4.08008C5.25585 4.08008 5.3463 4.08516 5.42761 4.08923C5.66645 4.09939 5.78637 4.11362 5.9439 4.49067C6.14005 4.96326 6.61772 6.12999 6.67463 6.24992C6.73256 6.36985 6.79049 6.53246 6.70919 6.68999C6.63296 6.8526 6.56589 6.92476 6.44596 7.06297C6.32604 7.20119 6.21221 7.30689 6.09228 7.45527C5.98252 7.58435 5.85853 7.72257 5.99675 7.9614C6.13497 8.19515 6.61264 8.97467 7.31593 9.60072C8.2235 10.4087 8.95932 10.6668 9.22254 10.7766C9.41869 10.8579 9.65245 10.8386 9.79575 10.6862C9.97767 10.49 10.2023 10.1648 10.4309 9.84464C10.5936 9.61495 10.7989 9.58649 11.0143 9.6678C11.2338 9.74402 12.3955 10.3182 12.6343 10.4372C12.8732 10.5571 13.0307 10.614 13.0886 10.7146C13.1455 10.8152 13.1455 11.2878 12.9494 11.8427Z" fill="#333C46"/>
</g>
<defs>
<clipPath id="clip0_51_2547">
<rect width="16.2611" height="16.2611" fill="white" transform="translate(0.0858307 0.361328)"/>
</clipPath>
</defs>
</svg>
