<svg width="20" height="22" viewBox="0 0 20 22" fill="none" xmlns="http://www.w3.org/2000/svg">
<path d="M11.9784 10.985C11.9784 12.0953 11.0783 12.9954 9.96804 12.9954C8.85773 12.9954 7.95764 12.0953 7.95764 10.985C7.95764 9.87469 8.85773 8.97461 9.96804 8.97461C11.0783 8.97461 11.9784 9.87469 11.9784 10.985Z" fill="white"/>
<path d="M9.38303 5.24805H10.5531V17.6635H9.38303V5.24805Z" fill="white"/>
<path d="M14.3561 7.22412L14.9712 8.21944L4.40987 14.7463L3.79477 13.751L14.3561 7.22412Z" fill="white"/>
<path d="M4.40662 8.21875L5.02179 7.22348L15.5827 13.7511L14.9675 14.7464L4.40662 8.21875Z" fill="white"/>
<path d="M12.8157 3.43561C12.8157 5.00836 11.5408 6.28333 9.96802 6.28333C8.39527 6.28333 7.1203 5.00836 7.1203 3.43561C7.1203 1.86286 8.39527 0.587891 9.96802 0.587891C11.5408 0.587891 12.8157 1.86286 12.8157 3.43561Z" fill="#DC7C44"/>
<path d="M12.8157 18.5347C12.8157 20.1075 11.5408 21.3825 9.96802 21.3825C8.39527 21.3825 7.1203 20.1075 7.1203 18.5347C7.1203 16.962 8.39527 15.687 9.96802 15.687C11.5408 15.687 12.8157 16.962 12.8157 18.5347Z" fill="#4C8EAA"/>
<path d="M5.71314 6.96442C5.71314 8.53717 4.43817 9.81214 2.86542 9.81214C1.29267 9.81214 0.0177002 8.53717 0.0177002 6.96442C0.0177002 5.39167 1.29267 4.1167 2.86542 4.1167C4.43817 4.1167 5.71314 5.39167 5.71314 6.96442Z" fill="#EDB444"/>
<path d="M19.4862 6.96442C19.4862 8.53717 18.2112 9.81214 16.6385 9.81214C15.0657 9.81214 13.7908 8.53717 13.7908 6.96442C13.7908 5.39167 15.0657 4.1167 16.6385 4.1167C18.2112 4.1167 19.4862 5.39167 19.4862 6.96442Z" fill="#BA557B"/>
<path d="M5.71314 14.3038C5.71314 15.8765 4.43817 17.1515 2.86542 17.1515C1.29267 17.1515 0.0177002 15.8765 0.0177002 14.3038C0.0177002 12.731 1.29267 11.4561 2.86542 11.4561C4.43817 11.4561 5.71314 12.731 5.71314 14.3038Z" fill="#D24A43"/>
<path d="M19.4862 14.3038C19.4862 15.8765 18.2112 17.1515 16.6385 17.1515C15.0657 17.1515 13.7908 15.8765 13.7908 14.3038C13.7908 12.731 15.0657 11.4561 16.6385 11.4561C18.2112 11.4561 19.4862 12.731 19.4862 14.3038Z" fill="#4C679B"/>
</svg>
