<svg width="19" height="19" viewBox="0 0 19 19" fill="none" xmlns="http://www.w3.org/2000/svg">
<g clip-path="url(#clip0_51_2542)">
<path d="M17.9498 13.4286C17.9283 13.3823 17.9083 13.3439 17.8897 13.3131C17.5819 12.7588 16.9938 12.0784 16.1256 11.2718L16.1073 11.2533L16.0981 11.2442L16.0888 11.2349H16.0795C15.6854 10.8593 15.4359 10.6068 15.3314 10.4775C15.1403 10.2312 15.0974 9.98184 15.2019 9.72922C15.2757 9.53835 15.553 9.13527 16.0332 8.51942C16.2857 8.19304 16.4858 7.93146 16.6335 7.73439C17.6988 6.3181 18.1606 5.41308 18.019 5.01896L17.9639 4.92686C17.9269 4.87141 17.8315 4.82068 17.6778 4.77442C17.5236 4.72826 17.3267 4.72063 17.0865 4.75139L14.4265 4.76977C14.3834 4.7545 14.3219 4.75592 14.2417 4.77442C14.1617 4.79293 14.1216 4.80221 14.1216 4.80221L14.0753 4.82534L14.0386 4.85313C14.0078 4.87151 13.9739 4.90382 13.9369 4.95002C13.9001 4.99605 13.8694 5.05008 13.8448 5.11164C13.5552 5.85669 13.2259 6.5494 12.8564 7.18974C12.6286 7.57157 12.4193 7.90248 12.2282 8.18266C12.0374 8.46275 11.8773 8.66911 11.7481 8.80139C11.6187 8.93379 11.5019 9.03987 11.397 9.12C11.2923 9.20016 11.2124 9.23404 11.157 9.22164C11.1015 9.20925 11.0493 9.19696 10.9998 9.18467C10.9137 9.12922 10.8444 9.05381 10.7922 8.95838C10.7397 8.86295 10.7044 8.74283 10.6859 8.59813C10.6675 8.45333 10.6566 8.32878 10.6535 8.22407C10.6507 8.11948 10.652 7.97154 10.6582 7.78068C10.6646 7.58972 10.6675 7.46051 10.6675 7.39277C10.6675 7.15875 10.6721 6.90477 10.6812 6.63076C10.6905 6.35676 10.6981 6.13966 10.7044 5.97972C10.7107 5.81962 10.7136 5.65024 10.7136 5.47166C10.7136 5.29309 10.7027 5.15305 10.6812 5.0514C10.66 4.94989 10.6274 4.85135 10.5845 4.75582C10.5413 4.66039 10.4781 4.58657 10.3952 4.53416C10.312 4.48182 10.2087 4.44028 10.0858 4.40942C9.75938 4.33556 9.34378 4.29561 8.83876 4.2894C7.69354 4.27711 6.95767 4.35106 6.63133 4.51116C6.50202 4.5788 6.38501 4.67123 6.28039 4.78814C6.16953 4.92365 6.15407 4.99761 6.2341 5.00977C6.6036 5.06512 6.86519 5.19753 7.01914 5.40687L7.07462 5.51779C7.11777 5.59783 7.16086 5.73952 7.20399 5.94268C7.24705 6.14584 7.27483 6.37057 7.28706 6.61676C7.31779 7.06633 7.31779 7.45116 7.28706 7.7713C7.25623 8.09156 7.22712 8.34088 7.19933 8.51946C7.17154 8.69803 7.13 8.84273 7.07462 8.95353C7.01914 9.06436 6.98223 9.1321 6.96372 9.15669C6.94525 9.18127 6.92985 9.19677 6.91762 9.20285C6.83759 9.23352 6.75435 9.24914 6.66821 9.24914C6.58193 9.24914 6.47731 9.20599 6.35418 9.11974C6.23109 9.0335 6.10334 8.91503 5.97093 8.76415C5.83853 8.61324 5.6892 8.40235 5.52289 8.13145C5.3567 7.86055 5.18428 7.54038 5.00571 7.17095L4.85796 6.90302C4.76561 6.73066 4.63944 6.47969 4.47934 6.15033C4.31914 5.82085 4.17755 5.50214 4.05445 5.19426C4.00525 5.06496 3.93133 4.96652 3.83282 4.89878L3.7866 4.87099C3.75586 4.8464 3.70653 4.8203 3.63885 4.79248C3.57108 4.76469 3.50036 4.74476 3.42641 4.7325L0.895703 4.75087C0.637097 4.75087 0.46163 4.80946 0.369239 4.92647L0.332263 4.98182C0.313791 5.01265 0.304474 5.06189 0.304474 5.12966C0.304474 5.1974 0.322946 5.28054 0.359922 5.37898C0.729359 6.24726 1.13111 7.08464 1.56519 7.89125C1.99926 8.69787 2.37646 9.34762 2.69656 9.83992C3.01673 10.3326 3.34308 10.7975 3.6756 11.2346C4.00813 11.6718 4.22824 11.952 4.33593 12.0751C4.44376 12.1984 4.52845 12.2906 4.59001 12.3522L4.82096 12.5738C4.96873 12.7216 5.18573 12.8986 5.47206 13.1048C5.75846 13.3112 6.07552 13.5144 6.42341 13.7146C6.77137 13.9146 7.17617 14.0778 7.63803 14.204C8.09982 14.3303 8.54929 14.381 8.9865 14.3565H10.0487C10.2641 14.3379 10.4273 14.2702 10.5382 14.1533L10.575 14.107C10.5997 14.0702 10.6228 14.0131 10.6442 13.9363C10.6658 13.8593 10.6765 13.7746 10.6765 13.6823C10.6702 13.4176 10.6904 13.179 10.7364 12.9666C10.7825 12.7543 10.835 12.5942 10.8936 12.4863C10.9523 12.3786 11.0185 12.2877 11.0921 12.214C11.166 12.1402 11.2186 12.0954 11.2494 12.08C11.2801 12.0645 11.3046 12.054 11.323 12.0477C11.4708 11.9985 11.6447 12.0462 11.845 12.191C12.0452 12.3357 12.2329 12.5144 12.4085 12.7267C12.584 12.9392 12.7949 13.1777 13.0411 13.4424C13.2875 13.7072 13.503 13.9041 13.6876 14.0336L13.8723 14.1444C13.9956 14.2184 14.1557 14.2861 14.3528 14.3477C14.5495 14.4092 14.7219 14.4246 14.8699 14.3938L17.2342 14.357C17.4681 14.357 17.6501 14.3182 17.7791 14.2414C17.9085 14.1644 17.9853 14.0796 18.0101 13.9874C18.0348 13.8951 18.0361 13.7903 18.0148 13.6732C17.9929 13.5564 17.9713 13.4747 17.9498 13.4286Z" fill="#EEEEEE"/>
</g>
<defs>
<clipPath id="clip0_51_2542">
<rect width="17.7394" height="17.7394" fill="white" transform="translate(0.304474 0.479004)"/>
</clipPath>
</defs>
</svg>
