<svg width="26" height="26" viewBox="0 0 26 26" fill="none" xmlns="http://www.w3.org/2000/svg">
<g clip-path="url(#clip0_49_3529)">
<path d="M23.6645 2.95874H1.96319C1.05379 2.95874 0.313843 3.69868 0.313843 4.60808V21.0924C0.313843 22.0019 1.05379 22.7417 1.96319 22.7417H23.6645C24.5739 22.7417 25.3138 22.0019 25.3138 21.0924V4.60808C25.3138 3.69868 24.574 2.95874 23.6645 2.95874ZM1.96319 4.37246H23.6645C23.7922 4.37246 23.9001 4.48038 23.9001 4.60808V15.5856L20.12 10.7342C19.8395 10.3743 19.429 10.1586 18.9936 10.1425C18.5582 10.1262 18.1329 10.3113 17.8266 10.6498L12.922 16.0702C12.8039 16.2006 12.5419 16.2366 12.3929 16.1429L8.36019 13.6033C7.66916 13.168 6.65778 13.2129 6.00794 13.7075L1.72757 16.9651V4.60808C1.72757 4.48038 1.83548 4.37246 1.96319 4.37246ZM23.6645 21.328H1.96319C1.83548 21.328 1.72757 21.2201 1.72757 21.0924V18.7416L6.86419 14.8324C7.0426 14.6967 7.41743 14.6801 7.60696 14.7995L11.6397 17.3391C12.3686 17.7982 13.3923 17.6574 13.9703 17.0187L18.8749 11.5983C18.9043 11.5658 18.9253 11.5559 18.9416 11.5552C18.954 11.5557 18.9779 11.5685 19.0049 11.6031L23.9001 17.8855V21.0923C23.9001 21.2201 23.7922 21.328 23.6645 21.328Z" fill="#333845"/>
<path d="M10.7606 12.5294C12.1412 12.5294 13.2644 11.4062 13.2644 10.0256C13.2644 8.64494 12.1412 7.52179 10.7606 7.52179C9.37996 7.52179 8.25681 8.64504 8.25681 10.0256C8.25681 11.4061 9.37996 12.5294 10.7606 12.5294ZM10.7606 8.93542C11.3617 8.93542 11.8507 9.42438 11.8507 10.0255C11.8507 10.6266 11.3617 11.1156 10.7606 11.1156C10.1595 11.1156 9.67053 10.6266 9.67053 10.0255C9.67053 9.42447 10.1595 8.93542 10.7606 8.93542Z" fill="#333845"/>
</g>
<defs>
<clipPath id="clip0_49_3529">
<rect width="25" height="25" fill="white" transform="translate(0.313843 0.35022)"/>
</clipPath>
</defs>
</svg>
