<svg width="29" height="29" viewBox="0 0 29 29" fill="none" xmlns="http://www.w3.org/2000/svg">
<g clip-path="url(#clip0_49_3555)">
<path d="M17.5281 1.94025H14.258V3.98403H16.5062V7.83315C16.5062 11.2139 13.7556 13.9646 10.3748 13.9646C6.99399 13.9646 4.24343 11.214 4.24343 7.83321V3.98403H6.42349V1.94025H3.22154C2.65711 1.94025 2.19965 2.39771 2.19965 2.96214V7.83321C2.19965 12.3412 5.86688 16.0084 10.3748 16.0084C14.8828 16.0084 18.55 12.3412 18.55 7.83321V2.96214C18.55 2.39771 18.0925 1.94025 17.5281 1.94025Z" fill="#333845"/>
<path d="M21.5135 16.8599V21.6969C21.5135 24.5143 19.2214 26.8064 16.404 26.8064C13.5866 26.8064 11.2945 24.5143 11.2945 21.6969V15.0205H9.25067V21.6969C9.25067 25.6411 12.4594 28.8502 16.404 28.8502C20.3481 28.8502 23.5573 25.6411 23.5573 21.6969V16.8599H21.5135Z" fill="#333845"/>
<path d="M22.5358 10.2516C20.4504 10.2516 18.7544 11.9477 18.7544 14.0327C18.7544 16.1174 20.4504 17.8137 22.5354 17.8137C24.6204 17.8137 26.3165 16.1174 26.3168 14.0327C26.3167 11.9477 24.6204 10.2516 22.5358 10.2516ZM22.5354 15.7699C21.5773 15.7699 20.7978 14.9906 20.7978 14.0327C20.7978 13.0749 21.5772 12.2955 22.5354 12.2955C23.4933 12.2955 24.2726 13.0749 24.2726 14.0327C24.2726 14.9906 23.4933 15.7699 22.5354 15.7699Z" fill="#333845"/>
<path d="M6.38938 0.85022C5.82495 0.85022 5.36749 1.30768 5.36749 1.87211V4.05217C5.36749 4.6166 5.82495 5.07406 6.38938 5.07406C6.95381 5.07406 7.41127 4.6166 7.41127 4.05217V1.87211C7.41127 1.30768 6.95381 0.85022 6.38938 0.85022Z" fill="#333845"/>
<path d="M14.2921 0.85022C13.7277 0.85022 13.2702 1.30768 13.2702 1.87211V4.05217C13.2702 4.6166 13.7277 5.07406 14.2921 5.07406C14.8565 5.07406 15.314 4.6166 15.314 4.05217V1.87211C15.314 1.30768 14.8565 0.85022 14.2921 0.85022Z" fill="#333845"/>
</g>
<defs>
<clipPath id="clip0_49_3555">
<rect width="28" height="28" fill="white" transform="translate(0.258179 0.85022)"/>
</clipPath>
</defs>
</svg>
