<svg width="29" height="29" viewBox="0 0 29 29" fill="none" xmlns="http://www.w3.org/2000/svg">
<g clip-path="url(#clip0_49_3468)">
<path d="M14.8668 13.1577C16.6761 13.1577 18.1481 11.6857 18.1481 9.87646C18.1481 8.06718 16.6761 6.59521 14.8668 6.59521C13.0575 6.59521 11.5856 8.06718 11.5856 9.87646C11.5856 11.6857 13.0575 13.1577 14.8668 13.1577ZM14.8668 8.78271C15.4699 8.78271 15.9606 9.27337 15.9606 9.87646C15.9606 10.4796 15.4699 10.9702 14.8668 10.9702C14.2637 10.9702 13.7731 10.4796 13.7731 9.87646C13.7731 9.27337 14.2637 8.78271 14.8668 8.78271Z" fill="#333845"/>
<path d="M24.7106 9.87646C24.7106 4.44862 20.2947 0.0327148 14.8668 0.0327148C9.43898 0.0327148 5.02307 4.44862 5.02307 9.87646C5.02307 12.0238 5.7024 14.0645 6.98767 15.778L12.2408 22.7817C12.8579 23.6042 13.8396 24.0952 14.8668 24.0952C15.8941 24.0952 16.8758 23.6042 17.4929 22.7816L22.746 15.778C24.0312 14.0645 24.7106 12.0238 24.7106 9.87646ZM20.996 14.4654L15.743 21.4689C15.5337 21.7478 15.2144 21.9077 14.8668 21.9077C14.5192 21.9077 14.1999 21.7478 13.9907 21.469L8.73761 14.4654C7.73863 13.1335 7.21057 11.5467 7.21057 9.87646C7.21057 5.65481 10.6452 2.22021 14.8668 2.22021C19.0885 2.22021 22.5231 5.65481 22.5231 9.87646C22.5231 11.5467 21.995 13.1335 20.996 14.4654Z" fill="#333845"/>
<path d="M20.3356 26.939C20.3356 26.3349 19.8459 25.8452 19.2418 25.8452H10.4918C9.88774 25.8452 9.39807 26.3349 9.39807 26.939C9.39807 27.543 9.88774 28.0327 10.4918 28.0327H19.2418C19.8459 28.0327 20.3356 27.543 20.3356 26.939Z" fill="#333845"/>
</g>
<defs>
<clipPath id="clip0_49_3468">
<rect width="28" height="28" fill="white" transform="translate(0.866821 0.0327148)"/>
</clipPath>
</defs>
</svg>
