<svg width="25" height="26" viewBox="0 0 25 26" fill="none" xmlns="http://www.w3.org/2000/svg">
<path d="M19.0832 25.1002H5.43323C2.54573 25.1002 0.183228 22.7377 0.183228 19.8502V19.6752L0.708227 5.67522C0.795727 2.78772 3.15823 0.60022 5.95823 0.60022H18.5582C21.3582 0.60022 23.7207 2.78772 23.8082 5.67522L24.3332 19.6752C24.4207 21.0752 23.8957 22.3877 22.9332 23.4377C21.9707 24.4877 20.6582 25.1002 19.2582 25.1002C19.2582 25.1002 19.1707 25.1002 19.0832 25.1002ZM5.95823 2.35022C4.03323 2.35022 2.54573 3.83772 2.45823 5.67522L1.93323 19.8502C1.93323 21.7752 3.50823 23.3502 5.43323 23.3502H19.2582C20.2207 23.3502 21.0957 22.9127 21.7082 22.2127C22.3207 21.5127 22.6707 20.6377 22.6707 19.6752L22.1457 5.67522C22.0582 3.75022 20.5707 2.35022 18.6457 2.35022H5.95823Z" fill="#333845"/>
<path d="M12.2582 11.1002C8.84568 11.1002 6.13318 8.38772 6.13318 4.97522C6.13318 4.45022 6.48318 4.10022 7.00818 4.10022C7.53318 4.10022 7.88318 4.45022 7.88318 4.97522C7.88318 7.42522 9.80818 9.35022 12.2582 9.35022C14.7082 9.35022 16.6332 7.42522 16.6332 4.97522C16.6332 4.45022 16.9832 4.10022 17.5082 4.10022C18.0332 4.10022 18.3832 4.45022 18.3832 4.97522C18.3832 8.38772 15.6707 11.1002 12.2582 11.1002Z" fill="#333845"/>
</svg>
