<svg width="29" height="29" viewBox="0 0 29 29" fill="none" xmlns="http://www.w3.org/2000/svg">
<path d="M21.4236 12.0737H15.2986C14.8203 12.0737 14.4236 11.677 14.4236 11.1987C14.4236 10.7203 14.8203 10.3237 15.2986 10.3237H21.4236C21.9019 10.3237 22.2986 10.7203 22.2986 11.1987C22.2986 11.677 21.9136 12.0737 21.4236 12.0737Z" fill="#333845"/>
<path d="M9.17299 12.9603C8.95132 12.9603 8.72965 12.8786 8.55465 12.7036L7.67965 11.8286C7.34132 11.4903 7.34132 10.9303 7.67965 10.5919C8.01799 10.2536 8.57799 10.2536 8.91632 10.5919L9.17299 10.8486L11.1797 8.84195C11.518 8.50361 12.078 8.50361 12.4163 8.84195C12.7547 9.18028 12.7547 9.74028 12.4163 10.0786L9.79132 12.7036C9.62799 12.867 9.40632 12.9603 9.17299 12.9603Z" fill="#333845"/>
<path d="M21.4236 20.2403H15.2986C14.8203 20.2403 14.4236 19.8436 14.4236 19.3653C14.4236 18.887 14.8203 18.4903 15.2986 18.4903H21.4236C21.9019 18.4903 22.2986 18.887 22.2986 19.3653C22.2986 19.8436 21.9136 20.2403 21.4236 20.2403Z" fill="#333845"/>
<path d="M9.17299 21.127C8.95132 21.127 8.72965 21.0453 8.55465 20.8703L7.67965 19.9953C7.34132 19.657 7.34132 19.097 7.67965 18.7586C8.01799 18.4203 8.57799 18.4203 8.91632 18.7586L9.17299 19.0153L11.1797 17.0086C11.518 16.6703 12.078 16.6703 12.4163 17.0086C12.7547 17.347 12.7547 17.907 12.4163 18.2453L9.79132 20.8703C9.62799 21.0336 9.40632 21.127 9.17299 21.127Z" fill="#333845"/>
<path d="M18.3668 27.3919H11.3668C5.0318 27.3919 2.32513 24.6852 2.32513 18.3502V11.3502C2.32513 5.0152 5.0318 2.30853 11.3668 2.30853H18.3668C24.7018 2.30853 27.4085 5.0152 27.4085 11.3502V18.3502C27.4085 24.6852 24.7018 27.3919 18.3668 27.3919ZM11.3668 4.05853C5.98847 4.05853 4.07513 5.97187 4.07513 11.3502V18.3502C4.07513 23.7285 5.98847 25.6419 11.3668 25.6419H18.3668C23.7451 25.6419 25.6585 23.7285 25.6585 18.3502V11.3502C25.6585 5.97187 23.7451 4.05853 18.3668 4.05853H11.3668Z" fill="#333845"/>
</svg>
