<svg width="22" height="23" viewBox="0 0 22 23" fill="none" xmlns="http://www.w3.org/2000/svg">
<path fill-rule="evenodd" clip-rule="evenodd" d="M3.30011 6.00002C3.30011 5.70828 3.41601 5.4285 3.62229 5.2222C3.82858 5.01592 4.10837 4.90002 4.40011 4.90002H17.6001C17.8918 4.90002 18.1717 5.01592 18.3779 5.2222C18.5842 5.4285 18.7001 5.70828 18.7001 6.00002C18.7001 6.29177 18.5842 6.57155 18.3779 6.77785C18.1717 6.98413 17.8918 7.10002 17.6001 7.10002H4.40011C4.10837 7.10002 3.82858 6.98413 3.62229 6.77785C3.41601 6.57155 3.30011 6.29177 3.30011 6.00002ZM3.30011 11.5C3.30011 11.2083 3.41601 10.9285 3.62229 10.7222C3.82858 10.5159 4.10837 10.4 4.40011 10.4H11.0001C11.2918 10.4 11.5717 10.5159 11.7779 10.7222C11.9842 10.9285 12.1001 11.2083 12.1001 11.5C12.1001 11.7917 11.9842 12.0716 11.7779 12.2778C11.5717 12.4841 11.2918 12.6 11.0001 12.6H4.40011C4.10837 12.6 3.82858 12.4841 3.62229 12.2778C3.41601 12.0716 3.30011 11.7917 3.30011 11.5ZM3.30011 17C3.30011 16.7083 3.41601 16.4285 3.62229 16.2222C3.82858 16.016 4.10837 15.9 4.40011 15.9H17.6001C17.8918 15.9 18.1717 16.016 18.3779 16.2222C18.5842 16.4285 18.7001 16.7083 18.7001 17C18.7001 17.2917 18.5842 17.5716 18.3779 17.7778C18.1717 17.9841 17.8918 18.1 17.6001 18.1H4.40011C4.10837 18.1 3.82858 17.9841 3.62229 17.7778C3.41601 17.5716 3.30011 17.2917 3.30011 17Z" fill="#333845"/>
</svg>
