<svg width="54" height="35" viewBox="0 0 54 35" fill="none" xmlns="http://www.w3.org/2000/svg">
<path d="M42.924 0.610213L39.1075 2.81374L35.291 5.01726C33.3065 6.16288 33.3065 9.0275 35.291 10.1735L35.5853 10.3435L31.639 17.1789L31.2091 17.9238L30.8485 18.5483L30.1344 19.7851C29.798 20.3683 29.0523 20.5678 28.4692 20.2314C27.886 19.8947 27.6864 19.1494 28.0228 18.5662L29.5275 15.96C29.5282 15.9585 29.5306 15.96 29.5321 15.9589L29.6943 15.6782C30.8173 13.7331 30.1507 11.2458 28.2057 10.1228C26.2606 8.99982 23.7733 9.66638 22.6503 11.6115L16.7581 21.8171L16.3519 22.5203C16.0331 23.0723 15.3271 23.2617 14.7752 22.9429C14.2232 22.624 14.0342 21.9181 14.3526 21.3661L15.4453 19.4737L16.2911 18.0088C17.4141 16.0637 16.7476 13.5764 14.8025 12.4534C12.8574 11.3304 10.3701 11.997 9.24708 13.9421L0.791588 28.5875C-0.331418 30.5326 0.335136 33.0199 2.28022 34.1429C4.22531 35.2659 6.71262 34.5994 7.83562 32.6543L9.64857 29.5145L10.9213 27.3102L10.7614 27.2178C10.2029 26.8954 10.2029 26.0889 10.7614 25.7666L11.8357 25.1464L12.91 24.5262C13.4686 24.2039 14.1667 24.6069 14.1667 25.252V26.4924V27.7327C14.1667 28.3735 13.4779 28.7739 12.9213 28.4632L12.634 28.961L12.6543 28.9727C11.819 30.8499 12.519 33.0932 14.3382 34.1433C16.2833 35.2663 18.7706 34.5998 19.8936 32.6547L23.1044 27.0938L24.5104 24.6588L24.4313 24.6132C23.8727 24.2908 23.8727 23.4843 24.4313 23.1619L25.5055 22.5418L26.5798 21.9216C27.1384 21.5992 27.8365 22.0023 27.8365 22.6474V23.8878V25.1281C27.8365 25.7572 27.1727 26.1509 26.6219 25.871L25.053 28.5883C23.93 30.5334 24.5965 33.0207 26.5416 34.1437C28.4867 35.2667 30.974 34.6002 32.097 32.6551L42.6301 14.4114L42.9244 14.5813C44.9089 15.7269 47.3899 14.2948 47.3899 12.0032V7.59538V3.18833C47.3891 0.896714 44.9085 -0.535402 42.924 0.610213Z" fill="#FFD600"/>
<path d="M42.6812 21.9537C43.9156 19.8152 47.0024 19.8152 48.2369 21.9537L50.5243 25.9152L52.8116 29.8767C54.0461 32.0151 52.5029 34.6884 50.0339 34.6884H45.4596H40.8853C38.416 34.6884 36.8728 32.0155 38.1077 29.8767L40.3946 25.9152L42.6812 21.9537Z" fill="white"/>
</svg>
