<svg width="53" height="35" viewBox="0 0 53 35" fill="none" xmlns="http://www.w3.org/2000/svg">
<path d="M42.6779 0.662093L38.8614 2.86562L35.0449 5.06914C33.0605 6.21476 33.0605 9.07938 35.0449 10.2254L35.3392 10.3953L31.3929 17.2308L30.963 17.9757L30.6024 18.6002L29.8883 19.837C29.5519 20.4201 28.8062 20.6197 28.2231 20.2833C27.6399 19.9465 27.4404 19.2013 27.7768 18.6181L29.2814 16.0119C29.2821 16.0104 29.2845 16.0119 29.286 16.0108L29.4482 15.7301C30.5712 13.785 29.9047 11.2977 27.9596 10.1747C26.0145 9.0517 23.5272 9.71826 22.4042 11.6633L16.512 21.869L16.1058 22.5722C15.787 23.1242 15.081 23.3136 14.5291 22.9948C13.9771 22.6759 13.7881 21.97 14.1066 21.418L15.1992 19.5256L16.045 18.0607C17.168 16.1156 16.5015 13.6283 14.5564 12.5053C12.6113 11.3823 10.124 12.0489 9.00099 13.9939L0.545495 28.6394C-0.577512 30.5845 0.0890419 33.0718 2.03413 34.1948C3.97922 35.3178 6.46652 34.6513 7.58953 32.7062L9.40248 29.5664L10.6752 27.3621L10.5154 27.2697C9.95677 26.9473 9.95677 26.1408 10.5154 25.8185L11.5896 25.1983L12.6639 24.5781C13.2225 24.2558 13.9206 24.6588 13.9206 25.3039V26.5443V27.7846C13.9206 28.4254 13.2318 28.8257 12.6752 28.5151L12.3879 29.0128L12.4082 29.0245C11.5729 30.9018 12.2729 33.1451 14.0921 34.1952C16.0372 35.3182 18.5245 34.6517 19.6475 32.7066L22.8583 27.1457L24.2643 24.7106L24.1852 24.665C23.6266 24.3427 23.6266 23.5362 24.1852 23.2138L25.2594 22.5937L26.3337 21.9735C26.8923 21.6511 27.5904 22.0542 27.5904 22.6993V23.9396V25.18C27.5904 25.8091 26.9266 26.2028 26.3758 25.9229L24.8069 28.6402C23.6839 30.5853 24.3504 33.0726 26.2955 34.1956C28.2406 35.3186 30.7279 34.652 31.8509 32.707L42.384 14.4633L42.6783 14.6332C44.6628 15.7788 47.1438 14.3467 47.1438 12.0551V7.64726V3.24021C47.1431 0.948594 44.6624 -0.483522 42.6779 0.662093Z" fill="#FFD600"/>
<path d="M42.4351 22.0055C43.6695 19.867 46.7563 19.867 47.9908 22.0055L50.2782 25.967L52.5655 29.9285C53.8 32.0669 52.2568 34.7401 49.7878 34.7401H45.2135H40.6393C38.1699 34.7401 36.6267 32.0673 37.8616 29.9285L40.1485 25.967L42.4351 22.0055Z" fill="#333845"/>
</svg>
