<svg width="21" height="21" viewBox="0 0 21 21" fill="none" xmlns="http://www.w3.org/2000/svg">
<g clip-path="url(#clip0_49_3306)">
<path d="M20.8012 19.8575L15.3793 14.5223C16.7992 12.9797 17.6715 10.9396 17.6715 8.69472C17.6708 3.89245 13.7154 0 8.83565 0C3.95594 0 0.000457764 3.89245 0.000457764 8.69472C0.000457764 13.497 3.95594 17.3894 8.83565 17.3894C10.944 17.3894 12.8778 16.6602 14.3967 15.4478L19.8396 20.804C20.1048 21.0653 20.5354 21.0653 20.8006 20.804C21.0664 20.5428 21.0664 20.1188 20.8012 19.8575ZM8.83565 16.0517C4.70689 16.0517 1.35988 12.7579 1.35988 8.69472C1.35988 4.63156 4.70689 1.33773 8.83565 1.33773C12.9645 1.33773 16.3114 4.63156 16.3114 8.69472C16.3114 12.7579 12.9645 16.0517 8.83565 16.0517Z" fill="#2A3848"/>
</g>
<defs>
<clipPath id="clip0_49_3306">
<rect width="21" height="21" fill="white" transform="translate(0.000244141)"/>
</clipPath>
</defs>
</svg>
